<?xml version="1.0" standalone="no"?><!DOCTYPE svg PUBLIC "-//W3C//DTD SVG 1.1//EN" "http://www.w3.org/Graphics/SVG/1.1/DTD/svg11.dtd"><svg t="1728118778204" class="icon" viewBox="0 0 1024 1024" version="1.1" xmlns="http://www.w3.org/2000/svg" p-id="4302" xmlns:xlink="http://www.w3.org/1999/xlink" width="200" height="200"><path d="M964.3776 297.69728l-360.64256-181.41696c-1.29536-48.16896-40.6528-86.84032-89.14432-86.84032-48.59904 0-88.04864 38.8608-89.15968 87.19872L63.9744 297.91232c-27.0592 8.01792-46.80704 33.03424-46.80704 62.6944v572.38016c0 36.12672 29.2864 65.41312 65.41312 65.41312h864.02048c36.12672 0 65.41312-29.29152 65.41312-65.41312V360.60672c0.00512-29.96224-20.15744-55.15776-47.63648-62.90944zM456.53504 186.4192a88.82176 88.82176 0 0 0 58.0608 21.54496c22.31296 0 42.66496-8.23296 58.30656-21.76512l216.66304 108.98944H239.64672L456.53504 186.4192z m351.06304 667.52512H217.50272a43.61728 43.61728 0 0 1 0-87.22432h590.09536a43.61728 43.61728 0 0 1 0 87.22432z m0-162.176H217.50272c-24.0896 0-43.61216-19.52768-43.61216-43.61728s19.52256-43.60704 43.61216-43.60704h590.09536c24.08448 0 43.61216 19.52256 43.61216 43.60704s-19.52768 43.61728-43.61216 43.61728z m0-164.90496H217.50272a43.61216 43.61216 0 0 1 0-87.2192h590.09536a43.61216 43.61216 0 1 1 0 87.2192z" fill="#1296db" p-id="4303"></path></svg>