<?xml version="1.0" standalone="no"?><!DOCTYPE svg PUBLIC "-//W3C//DTD SVG 1.1//EN" "http://www.w3.org/Graphics/SVG/1.1/DTD/svg11.dtd"><svg t="1727968756763" class="icon" viewBox="0 0 1097 1024" version="1.1" xmlns="http://www.w3.org/2000/svg" p-id="8715" xmlns:xlink="http://www.w3.org/1999/xlink" width="214.2578125" height="200"><path d="M954.592386 0H142.472109C62.752089 0 0 65.970145 0 143.349761v631.031497a143.349761 143.349761 0 0 0 142.472109 143.422899h122.505535l-25.598171 88.935362c-2.925505 5.704735 0 11.482608 2.852368 14.334976 2.852368 2.852368 5.704735 2.852368 11.40947 2.852367h5.631598l233.674738-106.122705h461.644739c79.72002 0 142.472109-65.970145 142.472109-143.349761V143.349761C1097.064495 65.970145 1031.533176 0 954.592386 0z m-629.71502 478.978359H193.74159a43.955717 43.955717 0 0 1-42.712378-43.004929c0-22.965217 19.966574-43.004928 42.712378-43.004928h128.283408c22.745804 0 42.712378 20.039711 42.712378 43.004928 0 22.965217-17.114206 43.004928-39.86001 43.004929z m293.501321 0H490.022141a43.955717 43.955717 0 0 1-42.712377-43.004929c0-22.965217 19.966574-43.004928 42.712377-43.004928h128.283409c22.745804 0 42.712378 20.039711 42.712377 43.004928a43.955717 43.955717 0 0 1-42.712377 43.004929z m282.091851 0h-108.243697a43.955717 43.955717 0 0 1-42.785515-43.004929c0-22.965217 19.893436-43.004928 42.712377-43.004928h108.243697c22.818942 0 42.785515 20.039711 42.785516 43.004928a42.127277 42.127277 0 0 1-42.712378 43.004929z" fill="#1296db" p-id="8716"></path></svg>