<?xml version="1.0" standalone="no"?><!DOCTYPE svg PUBLIC "-//W3C//DTD SVG 1.1//EN" "http://www.w3.org/Graphics/SVG/1.1/DTD/svg11.dtd"><svg t="1727965309486" class="icon" viewBox="0 0 1024 1024" version="1.1" xmlns="http://www.w3.org/2000/svg" p-id="4699" xmlns:xlink="http://www.w3.org/1999/xlink" width="200" height="200"><path d="M951.7 204.1c0-30.7-24.9-55.6-55.6-55.6L118 148.5c-30.7 0-55.6 24.9-55.6 55.6l0 111.2 889.2 0L951.6 204.1z" fill="#1296db" p-id="4700"></path><path d="M951.7 370.8 62.5 370.8l0 444.6 0 4c0 28.5 23.1 51.6 51.6 51.6l4 0 632.1 0 149.9 0c28.5 0 51.6-23.1 51.6-51.6L951.7 674.2c0 0 0 0 0 0L951.7 370.8 951.7 370.8zM382.1 704.3 159.8 704.3c-15.3 0-27.8-12.4-27.8-27.8 0-15.4 12.4-27.8 27.8-27.8l222.3 0c15.3 0 27.8 12.4 27.8 27.8C409.9 691.8 397.5 704.3 382.1 704.3zM437.7 593.1 159.8 593.1c-15.3 0-27.8-12.4-27.8-27.8 0-15.3 12.4-27.8 27.8-27.8l277.9 0c15.3 0 27.8 12.4 27.8 27.8C465.5 580.7 453 593.1 437.7 593.1zM648.4 593.1l-55.6 0c-15.4 0-27.8-12.4-27.8-27.8 0-15.3 12.4-27.8 27.8-27.8l55.6 0c15.3 0 27.8 12.4 27.8 27.8C676.2 580.7 663.8 593.1 648.4 593.1z" fill="#1296db" p-id="4701"></path></svg>