<?xml version="1.0" standalone="no"?><!DOCTYPE svg PUBLIC "-//W3C//DTD SVG 1.1//EN" "http://www.w3.org/Graphics/SVG/1.1/DTD/svg11.dtd"><svg t="1727968983136" class="icon" viewBox="0 0 1024 1024" version="1.1" xmlns="http://www.w3.org/2000/svg" p-id="10757" xmlns:xlink="http://www.w3.org/1999/xlink" width="200" height="200"><path d="M658.525091 567.621818c111.755636 0 202.565818 90.763636 202.565818 202.565818 0 111.709091-90.763636 202.519273-202.565818 202.519273-111.709091 0-202.519273-90.763636-202.519273-202.519273s90.763636-202.565818 202.519273-202.565818z m-9.029818-306.920727v62.836364h6.981818c60.369455 0 114.269091 51.525818 118.458182 111.243636l0.279272 7.540364v97.745454c-27.927273-13.963636-69.818182-20.945455-104.727272-20.945454a265.309091 265.309091 0 0 0-265.448728 265.448727c0 37.701818 5.678545 75.403636 22.062546 108.032l5.864727 10.705454h-3.584c-15.034182 0.093091-72.378182 0.744727-79.499636 5.864728l-0.698182 1.117091v6.981818c0 20.945455-13.963636 34.909091-34.909091 34.909091-19.223273 0-32.581818-11.729455-34.676364-29.835637l-0.279272-5.12v-6.981818h-20.945455c-60.369455 0-114.269091-51.479273-118.458182-111.197091L139.636364 791.552V449.303273c0-60.369455 51.479273-114.269091 111.243636-118.458182l7.493818-0.279273h6.981818v-62.836363h48.872728v62.836363h286.394181v-69.818182h48.872728z m-14.382546 407.598545c-13.963636 0-20.945455 6.981818-20.945454 20.945455v100.770909c0.186182 4.189091 1.163636 5.12 6.981818 10.984727 0 6.981818 6.981818 6.981818 13.963636 6.981818h97.792c6.981818 0 20.945455-6.981818 20.945455-20.945454 0-13.963636-6.981818-20.945455-20.945455-20.945455h-76.8v-76.846545c0-13.963636-6.981818-20.945455-20.945454-20.945455zM321.210182 456.285091c-12.567273 0-25.134545 11.310545-27.508364 23.738182l-0.418909 4.189091v258.420363c0 13.963636 13.963636 27.927273 27.927273 27.927273 12.567273 0 25.134545-11.310545 27.554909-23.738182l0.418909-4.189091v-258.420363c0-13.963636-13.963636-27.927273-27.927273-27.927273zM537.739636 93.090909c60.229818 0 107.659636 44.916364 111.522909 103.982546l0.232728 7.77309V232.727273h-48.872728v-27.927273c0-32.861091-24.762182-59.578182-56.785454-62.557091l-6.050909-0.325818H377.064727c-32.861091 0-59.578182 24.762182-62.557091 56.785454l-0.325818 6.05091v27.973818h-48.872727v-27.927273c0-60.229818 44.916364-107.659636 103.982545-111.522909L377.111273 93.090909h160.628363z" fill="#1296db" p-id="10758"></path></svg>