<?xml version="1.0" standalone="no"?><!DOCTYPE svg PUBLIC "-//W3C//DTD SVG 1.1//EN" "http://www.w3.org/Graphics/SVG/1.1/DTD/svg11.dtd"><svg t="1727969240208" class="icon" viewBox="0 0 1024 1024" version="1.1" xmlns="http://www.w3.org/2000/svg" p-id="15202" xmlns:xlink="http://www.w3.org/1999/xlink" width="200" height="200"><path d="M452.142545 772.002909c0-149.748364 120.762182-271.476364 269.312-271.476364 57.192727 0 110.289455 18.210909 153.902546 48.989091V116.328727C875.345455 52.002909 823.633455 0 759.959273 0H205.323636c-63.802182 0-115.397818 52.130909-115.397818 116.328727v791.342546c0 64.325818 51.712 116.328727 115.397818 116.328727h416.686546c-99.328-39.947636-169.867636-137.681455-169.867637-251.997091zM206.138182 184.773818h546.990545a33.291636 33.291636 0 0 1 0 66.583273H206.138182a33.291636 33.291636 0 0 1 0-66.583273z m0.256 167.749818H752.872727a33.547636 33.547636 0 0 1 0 67.095273H206.394182a33.547636 33.547636 0 0 1 0-67.095273z m165.061818 402.571637H206.394182a33.547636 33.547636 0 0 1 0-67.095273h165.061818a33.547636 33.547636 0 0 1 0 67.095273z m49.757091-167.738182H206.394182a33.547636 33.547636 0 0 1 0-67.095273h214.818909a33.547636 33.547636 0 0 1 0 67.095273zM721.454545 539.217455c-127.232 0-230.795636 104.389818-230.795636 232.657454S594.210909 1004.660364 721.454545 1004.660364c127.232 0 230.795636-104.401455 230.795637-232.657455 0-128.267636-103.563636-232.785455-230.795637-232.785454z m104.180364 193.954909v38.818909h-76.893091v38.818909h76.893091v38.818909h-76.893091v77.509818h-38.516363v-77.509818h-76.893091V810.821818h76.893091v-38.818909h-76.893091v-38.818909H683.054545l-57.69309-58.158545h54.458181l49.722182 50.129454 49.722182-50.129454h54.458182l-57.821091 58.158545h49.733818z" fill="#1296db" p-id="15203"></path></svg>